<svg width="45" height="45" viewBox="0 0 45 45" fill="none" xmlns="http://www.w3.org/2000/svg">
<path d="M41.6725 0.000314615H3.32746C2.89643 -0.0056357 2.46844 0.0728705 2.06793 0.23135C1.66742 0.389829 1.30225 0.625177 0.993254 0.923954C0.684262 1.22273 0.437508 1.57908 0.267084 1.97266C0.0966603 2.36623 0.00590431 2.78933 0 3.21777V41.7822C0.00590431 42.2107 0.0966603 42.6338 0.267084 43.0273C0.437508 43.4209 0.684262 43.7773 0.993254 44.076C1.30225 44.3748 1.66742 44.6102 2.06793 44.7686C2.46844 44.9271 2.89643 45.0056 3.32746 44.9997H41.6725C42.1036 45.0056 42.5316 44.9271 42.9321 44.7686C43.3326 44.6102 43.6978 44.3748 44.0067 44.076C44.3157 43.7773 44.5625 43.4209 44.7329 43.0273C44.9033 42.6338 44.9941 42.2107 45 41.7822V3.21777C44.9941 2.78933 44.9033 2.36623 44.7329 1.97266C44.5625 1.57908 44.3157 1.22273 44.0067 0.923954C43.6978 0.625177 43.3326 0.389829 42.9321 0.23135C42.5316 0.0728705 42.1036 -0.0056357 41.6725 0.000314615ZM13.6494 37.6648H6.85865V17.4151H13.6494V37.6648ZM10.254 14.5801C9.31749 14.5801 8.41932 14.2103 7.7571 13.5521C7.09487 12.8938 6.72284 12.0011 6.72284 11.0702C6.72284 10.1393 7.09487 9.24649 7.7571 8.58825C8.41932 7.93001 9.31749 7.56021 10.254 7.56021C10.7513 7.50415 11.2549 7.55313 11.7319 7.70394C12.2088 7.85476 12.6483 8.104 13.0216 8.43536C13.3949 8.76672 13.6936 9.17271 13.8981 9.62676C14.1026 10.0808 14.2083 10.5727 14.2083 11.0702C14.2083 11.5676 14.1026 12.0595 13.8981 12.5136C13.6936 12.9676 13.3949 13.3736 13.0216 13.705C12.6483 14.0363 12.2088 14.2856 11.7319 14.4364C11.2549 14.5872 10.7513 14.6362 10.254 14.5801ZM38.1413 37.6648H31.3506V26.7974C31.3506 24.075 30.3773 22.2975 27.91 22.2975C27.1464 22.3031 26.4028 22.5411 25.7796 22.9796C25.1563 23.4181 24.6832 24.036 24.424 24.75C24.2469 25.2788 24.1702 25.8357 24.1977 26.3924V37.6423H17.4069C17.4069 37.6423 17.4069 19.2375 17.4069 17.3926H24.1977V20.25C24.8146 19.186 25.7118 18.3095 26.7927 17.7148C27.8737 17.1201 29.0974 16.8297 30.332 16.8751C34.8591 16.8751 38.1413 19.7775 38.1413 26.01V37.6648Z" fill="#5374D8"/>
</svg>
