<svg width="48" height="44" viewBox="0 0 48 44" fill="none" xmlns="http://www.w3.org/2000/svg">
<path fill-rule="evenodd" clip-rule="evenodd" d="M9.49107 0C9.21654 0.00939775 8.9565 0.12442 8.76603 0.320413L0.310801 8.69306C0.25759 8.74515 0.210116 8.80249 0.169176 8.86451C0.153276 8.88969 0.138466 8.9155 0.124786 8.94193C0.121892 8.94888 0.119073 8.95587 0.116331 8.96288C0.102473 8.98954 0.0897788 9.01691 0.0782827 9.04465C0.0753885 9.05159 0.0725695 9.05859 0.0698271 9.0656C0.0594854 9.09311 0.0503174 9.12087 0.0423476 9.14915C0.0393202 9.16096 0.036501 9.17301 0.033892 9.18492C0.01923 9.24122 0.00933146 9.29844 0.00429879 9.35637C0.00422833 9.36335 0.00422833 9.37035 0.00429879 9.37732C0.00202521 9.40169 0.000615446 9.42619 7.14858e-05 9.45065V42.9412C-0.00171278 43.0932 0.0299235 43.2437 0.092782 43.3823C0.15564 43.5208 0.248214 43.6442 0.364073 43.7438C0.479931 43.8434 0.616295 43.9168 0.763693 43.959C0.911091 44.0011 1.06599 44.0109 1.21763 43.9878H34.8779C34.8892 43.988 34.9004 43.988 34.9117 43.9878C34.9364 43.9887 34.961 43.9887 34.9857 43.9878C34.9949 43.9879 35.004 43.9879 35.0132 43.9878C35.0733 43.9803 35.1328 43.9678 35.1907 43.9503C35.2006 43.9504 35.2105 43.9504 35.2203 43.9503C35.2439 43.9413 35.2672 43.9315 35.2901 43.9209C35.2915 43.9209 35.2929 43.9209 35.2943 43.9209C35.3028 43.921 35.3112 43.921 35.3197 43.9209C35.3419 43.9105 35.3638 43.8993 35.3852 43.8874C35.3938 43.8806 35.4022 43.8736 35.4106 43.8665C35.4329 43.8533 35.4548 43.8393 35.4761 43.8245C35.4775 43.8246 35.4789 43.8246 35.4803 43.8245C35.4875 43.8177 35.4945 43.8107 35.5015 43.8036C35.5211 43.7875 35.5401 43.7709 35.5585 43.7535C35.5671 43.7467 35.5756 43.7397 35.5839 43.7326C35.6028 43.7165 35.6212 43.6996 35.6389 43.6822C35.6403 43.6822 35.6417 43.6822 35.6431 43.6822L43.6523 35.4248C44.2275 35.6527 44.8573 35.7092 45.4645 35.5876C46.0717 35.466 46.6298 35.1715 47.0703 34.7403C47.0717 34.7403 47.0732 34.7403 47.0746 34.7403C48.29 33.5388 48.3175 31.5523 47.102 30.3508L44.8741 28.1468L44.39 27.6695V1.09487C44.39 0.865813 44.3142 0.642935 44.174 0.46069C44.0339 0.278445 43.8372 0.146782 43.6143 0.0858523C43.5816 0.075893 43.5484 0.0675881 43.5149 0.0608121C43.5135 0.0608093 43.5121 0.0608093 43.5107 0.0608121C43.4765 0.0521284 43.442 0.045122 43.4071 0.03986C43.3825 0.039005 43.3578 0.039005 43.3331 0.03986H9.70668C9.63572 0.0255881 9.56347 0.0185536 9.49107 0.018908V0ZM9.94976 2.10568H40.7902L34.9646 7.87465C34.7906 7.66888 34.6087 7.46981 34.4192 7.27803C30.2656 3.16497 23.4739 3.19642 19.297 7.33041C18.9588 7.66532 18.6586 8.02096 18.3754 8.38517H3.60834L9.94976 2.10568ZM42.2762 3.58561V25.5367L40.7374 24.0108L39.3317 22.6252C39.5298 22.4289 39.6411 22.1627 39.6411 21.8852C39.6411 21.6077 39.5298 21.3415 39.3317 21.1452L36.7613 18.5978C37.3362 17.1513 37.5831 15.5974 37.4845 14.0461C37.3858 12.4947 36.9441 10.9839 36.1906 9.62032L42.2762 3.58561ZM26.8729 6.29201C29.0649 6.29201 31.2506 7.10436 32.9205 8.75796C36.2603 12.0652 36.2476 17.4236 32.8719 20.7643C32.5083 21.1243 32.1109 21.4235 31.7072 21.7061V13.6308C31.7072 13.3533 31.5958 13.0869 31.3976 12.8906C31.1994 12.6944 30.9306 12.5843 30.6503 12.5843H18.5995C18.9865 11.159 19.742 9.85808 20.7915 8.81008C22.4025 7.20723 24.5892 6.30179 26.8729 6.29201ZM2.11388 10.4783H17.1346C16.8211 11.1533 16.5802 11.8593 16.4159 12.5843H9.51221C9.2319 12.5843 8.96307 12.6944 8.76486 12.8906C8.56665 13.0869 8.4553 13.3533 8.4553 13.6308V28.283C8.4553 28.5605 8.56665 28.8267 8.76486 29.0229C8.96307 29.2192 9.2319 29.3296 9.51221 29.3296H30.6503C30.9306 29.3296 31.1994 29.2192 31.3976 29.0229C31.5958 28.8267 31.7072 28.5605 31.7072 28.283V25.4864L33.3221 27.0897C33.4601 27.2239 33.6327 27.3181 33.821 27.3619V41.8758H2.11388V10.4783ZM10.5691 14.6774H16.1601C16.1314 16.0842 16.3865 17.4825 16.9105 18.7904V20.9569H18.1196C18.4578 21.4237 18.8256 21.8777 19.2484 22.2943C19.8297 22.8699 20.4681 23.3557 21.1381 23.7701V25.1432H23.252V24.739C25.2967 25.439 27.5076 25.5092 29.5934 24.9401V27.2364H10.5691V14.6774ZM18.2634 14.6774H29.5934V22.7716C28.9043 23.0102 28.1983 23.1545 27.4796 23.2131V16.7706H25.3658V23.1546C23.6151 22.8739 21.9979 22.0552 20.7429 20.8143C20.021 20.0896 19.4386 19.2407 19.0243 18.309V16.7706H18.5001C18.3338 16.0853 18.2528 15.3821 18.2634 14.6774ZM12.6829 16.7706V25.1432H14.7967V16.7706H12.6829ZM21.1381 16.7706V20.9569H23.252V16.7706H21.1381ZM35.7488 20.557L37.0911 21.8862L34.0725 24.8688L32.7472 23.5565C33.3179 23.1797 33.8633 22.7444 34.3664 22.2462C34.8948 21.7208 35.3535 21.1536 35.7488 20.557ZM16.9105 23.0501V25.1432H19.0243V23.0501H16.9105ZM37.8372 24.1007L39.2408 25.4905L40.8515 27.0897L42.2191 28.4419L43.3796 29.5932L45.6076 31.7953C46.005 32.1888 46.0029 32.8 45.5801 33.2228C45.1447 33.6435 44.5295 33.6413 44.1343 33.2519L36.3639 25.5577L37.8372 24.1007ZM35.9348 28.0903L41.9824 34.0808L35.9348 40.3187V28.0903ZM4.22769 33.5159V35.609H19.0243V33.5159H4.22769ZM4.22769 37.7022V39.7954H14.7967V37.7022H4.22769Z" fill="url(#paint0_linear_3_57)"/>
<defs>
<linearGradient id="paint0_linear_3_57" x1="7.14864e-05" y1="22.0012" x2="42.2762" y2="22.0012" gradientUnits="userSpaceOnUse">
<stop stop-color="#2B1F3A"/>
<stop offset="1" stop-color="#AD59D4"/>
</linearGradient>
</defs>
</svg>
